<?xml version="1.0" standalone="no"?>
<!DOCTYPE svg PUBLIC "-//W3C//DTD SVG 20010904//EN"
 "http://www.w3.org/TR/2001/REC-SVG-20010904/DTD/svg10.dtd">
<svg version="1.0" xmlns="http://www.w3.org/2000/svg"
 width="745.000000pt" height="733.000000pt" viewBox="0 0 745.000000 733.000000"
 preserveAspectRatio="xMidYMid meet">

<g transform="translate(0.000000,733.000000) scale(0.100000,-0.100000)"
fill="#000000" stroke="none">
<path d="M1347 7314 c-377 -51 -676 -194 -914 -436 -219 -222 -333 -456 -405
-828 l-22 -115 -3 -2210 c-4 -2418 -7 -2283 54 -2540 138 -589 544 -986 1144
-1119 239 -53 163 -51 2514 -51 2321 0 2256 -1 2505 47 474 90 866 386 1059
799 79 168 136 385 160 611 8 65 11 799 11 2217 0 2282 2 2209 -51 2445 -149
672 -618 1090 -1322 1181 -103 13 -411 15 -2375 14 -1821 -1 -2276 -4 -2355
-15z m418 -7 c-21 -13 -99 -14 -149 -2 -19 6 -31 4 -37 -6 -6 -10 -11 -11 -16
-3 -5 7 -17 14 -28 17 -11 2 41 5 115 6 113 1 131 -1 115 -12z m152 6 c-8 -7
-98 -5 -105 2 -3 3 21 5 53 5 32 0 55 -3 52 -7z m537 -5 c-6 -10 -4 -10 7 0
18 17 36 15 43 -4 9 -23 0 -29 -19 -14 -10 8 -15 9 -15 1 0 -17 -46 -13 -61 5
-12 14 -14 14 -20 -3 -6 -15 -8 -15 -8 -1 -1 14 -5 14 -26 5 -14 -7 -25 -15
-25 -19 0 -5 -5 -8 -11 -8 -5 0 -7 5 -3 11 5 9 -2 10 -22 6 -16 -3 -23 -4 -16
-1 19 9 14 20 -10 21 -12 1 -33 -9 -46 -22 -25 -25 -42 -32 -42 -17 0 4 5 13
11 19 8 8 7 13 -2 18 -8 5 -10 4 -5 -3 10 -16 -7 -15 -23 1 -11 10 -14 9 -18
-1 -3 -6 -10 -9 -16 -5 -16 10 -99 12 -117 3 -8 -5 -28 -2 -45 5 -26 12 6 13
233 14 208 1 262 -2 256 -11z m2967 -7 c-25 -19 -15 -38 14 -27 8 3 19 -3 25
-14 6 -11 16 -17 25 -14 8 4 15 2 15 -4 0 -5 -20 -9 -44 -8 -36 0 -43 3 -34
13 15 19 -19 17 -38 -2 -18 -17 -34 -20 -34 -5 0 6 7 10 15 10 8 0 15 9 15 20
0 19 -2 19 -22 6 -30 -18 -86 -28 -93 -16 -6 9 20 14 57 11 9 -1 19 3 23 9 5
7 0 11 -11 10 -32 -4 -40 0 -24 10 8 5 10 10 4 10 -10 0 -26 -12 -73 -51 -10
-10 -21 -10 -44 -1 -21 8 -35 8 -41 2 -7 -7 -1 -10 17 -10 19 0 25 -4 21 -15
-4 -10 0 -15 11 -15 9 0 14 -4 10 -9 -3 -6 -25 3 -49 20 -24 16 -49 29 -55 29
-6 0 -11 3 -11 8 0 13 -46 29 -66 21 -18 -6 -17 -8 6 -18 l25 -11 -25 4 c-14
2 -34 7 -45 11 -17 7 -16 5 4 -13 13 -12 19 -22 13 -22 -6 0 -14 5 -18 11 -4
8 -27 10 -65 6 -33 -3 -59 -3 -59 -1 0 3 12 10 28 16 l27 12 -24 4 c-13 2 -28
-2 -32 -10 -5 -7 -9 -9 -9 -4 0 4 -15 -3 -34 -18 -19 -14 -42 -26 -52 -26 -17
0 -11 14 7 16 5 1 14 2 19 3 6 0 10 6 10 11 0 7 -13 8 -35 4 -23 -4 -35 -2
-35 5 0 8 -5 9 -19 1 -11 -5 -29 -10 -40 -10 -12 0 -21 -6 -22 -12 0 -10 -2
-10 -6 0 -2 6 -13 12 -24 12 -11 0 -22 7 -25 15 -4 8 -11 15 -16 15 -6 0 -8
-7 -4 -15 3 -8 2 -15 -3 -15 -5 0 -11 10 -15 23 -5 18 -8 19 -15 7 -5 -8 -7
-18 -4 -23 6 -11 -17 -57 -29 -57 -12 0 -5 23 12 37 12 10 12 12 1 13 -7 0
-11 6 -8 15 8 19 -13 31 -23 14 -5 -7 -6 -17 -4 -21 3 -4 0 -8 -5 -8 -6 0 -11
8 -11 18 -1 16 -1 16 -11 0 -5 -10 -19 -18 -29 -18 -12 0 -20 7 -20 18 -1 16
-1 16 -14 0 -18 -24 -36 -23 -36 1 0 24 -16 36 -24 19 -5 -10 -7 -10 -12 0 -3
6 -10 12 -15 12 -6 0 -7 -4 -4 -10 4 -6 -8 -10 -29 -10 -20 0 -36 -4 -36 -10
0 -5 9 -10 20 -10 11 0 20 -4 20 -9 0 -14 -28 -33 -42 -28 -8 4 -7 6 5 6 36 2
15 21 -23 21 -31 0 -38 -3 -34 -15 4 -8 1 -15 -5 -15 -20 0 -24 29 -7 45 9 9
16 12 16 6 0 -6 5 -11 10 -11 21 0 9 28 -15 32 -17 4 -25 1 -25 -8 0 -8 -5
-14 -11 -14 -5 0 -7 -4 -4 -10 10 -16 -11 -12 -25 5 -10 12 -9 15 6 15 15 0
16 2 5 9 -22 14 -52 1 -46 -20 5 -15 1 -19 -20 -19 -14 0 -24 4 -21 9 10 16
-18 18 -30 3 -12 -17 -49 -9 -39 8 3 5 -1 10 -9 10 -9 0 -16 -7 -16 -15 0 -8
-4 -15 -10 -15 -14 0 -12 37 3 43 7 3 5 6 -5 6 -10 1 -18 -5 -18 -13 0 -16
-50 -32 -59 -18 -9 15 -67 2 -90 -19 -22 -20 -36 -25 -26 -9 3 6 -5 10 -18 10
-14 0 -27 -6 -30 -13 -6 -16 -77 -21 -77 -6 0 6 9 9 19 6 30 -7 43 7 35 37 -4
16 -10 23 -13 18 -7 -11 -40 -10 -80 3 -27 8 -46 -12 -29 -32 12 -14 8 -16
-16 -7 -14 5 -14 9 -4 22 11 13 10 14 -9 8 -13 -4 -28 -4 -35 1 -33 20 -78 5
-78 -26 0 -6 -9 -11 -20 -11 -11 0 -20 4 -20 10 0 5 8 7 18 3 14 -5 15 -4 4 8
-17 18 -64 18 -80 -1 -11 -13 -12 -12 -7 7 6 20 3 22 -34 20 -31 -1 -38 -4
-29 -14 7 -8 7 -13 0 -13 -5 0 -12 7 -16 15 -3 8 -13 15 -23 15 -15 0 -16 -2
-3 -10 8 -5 10 -10 4 -10 -6 0 -14 3 -18 7 -10 11 -116 10 -116 -1 0 -5 -13
-6 -30 -3 -17 4 -32 2 -36 -5 -5 -8 -10 -7 -18 3 -12 15 -37 23 -35 12 3 -20
-2 -27 -11 -13 -7 12 -12 12 -22 2 -6 -6 -22 -12 -34 -12 -12 0 -24 -4 -26
-10 -1 -5 -15 -11 -30 -12 -16 -1 -28 -6 -28 -10 0 -4 -4 -8 -10 -8 -5 0 -9 3
-8 8 3 9 -45 57 -57 56 -22 -2 -65 -24 -65 -34 0 -17 -36 -11 -55 10 -10 12
-24 19 -31 16 -6 -2 -17 1 -23 7 -9 9 -10 7 -5 -8 7 -20 7 -20 -17 0 -13 11
-26 21 -28 22 -2 2 657 3 1465 3 1427 0 1468 -1 1445 -19z m113 3 c5 -14 4
-15 -9 -4 -9 7 -19 10 -23 6 -4 -4 4 -16 18 -26 14 -11 27 -15 28 -10 2 6 12
10 23 10 13 0 19 -7 19 -22 0 -19 -2 -20 -10 -8 -9 13 -12 13 -21 -2 -11 -20
-29 -24 -29 -7 0 13 -51 55 -62 52 -5 -2 -8 4 -8 12 0 22 66 20 74 -1z m68 9
c-6 -2 -10 -9 -6 -14 3 -5 0 -9 -5 -9 -6 0 -11 4 -11 9 0 5 -10 12 -22 14 -13
2 -5 5 17 5 22 0 34 -2 27 -5z m481 -13 c50 -7 83 -16 76 -21 -7 -4 -19 -5
-27 -1 -9 3 -13 1 -9 -5 4 -6 -4 -14 -18 -17 -14 -4 -25 -11 -25 -16 0 -6 -19
-10 -42 -10 -31 0 -39 3 -28 10 12 7 10 11 -10 19 -22 9 -18 11 25 10 70 -1
75 0 75 12 0 7 -19 9 -55 6 -30 -3 -55 -1 -55 4 0 5 -7 9 -16 9 -11 0 -15 -6
-11 -20 5 -21 -12 -26 -75 -21 -34 3 -36 -6 -5 -18 23 -9 22 -10 -66 -12 -9 0
-16 -3 -13 -7 9 -16 -12 -45 -35 -48 -23 -3 -23 -3 -4 9 11 6 21 23 23 36 2
20 -1 22 -24 17 -21 -6 -25 -4 -21 8 4 11 1 16 -11 16 -15 1 -15 2 2 15 19 15
19 15 -2 15 -13 0 -25 -7 -28 -15 -4 -8 -12 -15 -19 -15 -7 0 -16 -6 -19 -12
-4 -9 -5 -8 -5 2 2 31 -1 41 -13 39 -28 -3 -37 2 -31 17 5 14 28 16 192 11
102 -2 226 -10 274 -17z m-4635 3 c-10 -2 -28 -2 -40 0 -13 2 -5 4 17 4 22 1
32 -1 23 -4z m79 -9 c-3 -3 -12 -4 -19 -1 -8 3 -5 6 6 6 11 1 17 -2 13 -5z
m1947 0 c21 -8 8 -34 -18 -33 -11 0 -16 3 -9 5 7 3 9 12 6 20 -6 15 -2 17 21
8z m-1384 -14 c0 -5 -8 -10 -17 -10 -15 0 -16 2 -3 10 19 12 20 12 20 0z
m1085 0 c3 -5 1 -10 -4 -10 -6 0 -11 5 -11 10 0 6 2 10 4 10 3 0 8 -4 11 -10z
m461 -18 c-10 -2 -26 3 -35 12 -15 15 -13 16 19 4 26 -9 30 -13 16 -16z
m-2411 8 c-11 -5 -27 -9 -35 -9 -9 0 -8 4 5 9 11 5 27 9 35 9 9 0 8 -4 -5 -9z
m790 -8 c-3 -3 -11 0 -18 7 -9 10 -8 11 6 5 10 -3 15 -9 12 -12z m4327 -13
c44 -12 75 -25 72 -31 -3 -5 -16 -7 -28 -4 -15 4 -25 -1 -33 -14 -8 -12 -19
-17 -34 -13 l-23 6 23 9 c20 7 21 10 7 23 -18 19 -30 19 -23 1 7 -17 -36 -27
-55 -14 -10 7 -9 8 4 4 10 -3 20 -1 23 4 4 6 -13 10 -39 10 -39 0 -44 2 -39
18 5 14 4 15 -8 6 -21 -17 -79 -28 -79 -15 0 6 9 11 20 11 11 0 20 4 20 9 0
26 73 22 192 -10z m-5015 15 c-3 -3 -12 -4 -19 -1 -8 3 -5 6 6 6 11 1 17 -2
13 -5z m220 0 c-3 -3 -12 -4 -19 -1 -8 3 -5 6 6 6 11 1 17 -2 13 -5z m1393 -4
c0 -5 -4 -10 -10 -10 -5 0 -10 5 -10 10 0 6 5 10 10 10 6 0 10 -4 10 -10z
m908 3 c-10 -2 -26 -2 -35 0 -10 3 -2 5 17 5 19 0 27 -2 18 -5z m1790 -13
c-13 -20 -38 -28 -38 -12 0 12 23 32 37 32 11 0 11 -4 1 -20z m-3688 0 c0 -5
-4 -10 -10 -10 -5 0 -10 5 -10 10 0 6 5 10 10 10 6 0 10 -4 10 -10z m3156 -5
c14 -13 11 -15 -20 -15 -37 0 -49 15 -18 23 9 3 18 5 20 6 2 0 10 -6 18 -14z
m-3989 -1 c-3 -3 -12 -4 -19 -1 -8 3 -5 6 6 6 11 1 17 -2 13 -5z m483 2 c0 -2
-7 -9 -15 -16 -13 -11 -14 -10 -9 4 5 14 24 23 24 12z m525 -6 c-3 -5 -14 -10
-23 -10 -15 0 -15 2 -2 10 20 13 33 13 25 0z m1015 0 c0 -5 -7 -10 -16 -10 -8
0 -12 5 -9 10 3 6 10 10 16 10 5 0 9 -4 9 -10z m60 0 c0 -5 -10 -10 -22 -10
-19 0 -20 2 -8 10 19 13 30 13 30 0z m45 0 c3 -5 1 -10 -4 -10 -6 0 -11 5 -11
10 0 6 2 10 4 10 3 0 8 -4 11 -10z m352 4 c-3 -3 -12 -4 -19 -1 -8 3 -5 6 6 6
11 1 17 -2 13 -5z m229 -6 c4 -7 3 -8 -5 -4 -6 4 -14 0 -17 -8 -3 -9 -13 -16
-22 -16 -11 0 -9 5 8 20 27 23 27 23 36 8z m84 -4 c0 -2 -12 -4 -26 -4 -14 0
-23 4 -20 9 6 8 46 4 46 -5z m143 5 c-8 -8 -16 -8 -30 0 -16 9 -14 10 12 11
21 0 26 -3 18 -11z m267 1 c0 -5 -5 -10 -11 -10 -5 0 -7 5 -4 10 3 6 8 10 11
10 2 0 4 -4 4 -10z m80 0 c-20 -13 -53 -13 -45 0 3 6 18 10 33 10 21 0 24 -2
12 -10z m96 3 c-11 -11 -48 -14 -41 -3 3 5 16 10 27 10 12 0 18 -3 14 -7z
m124 -3 c8 -5 11 -10 5 -10 -5 0 -17 5 -25 10 -8 5 -10 10 -5 10 6 0 17 -5 25
-10z m130 -5 c0 -2 -9 -3 -19 -2 -11 0 -18 5 -15 9 4 6 34 0 34 -7z m977 -5
c-1 -14 -8 -20 -24 -20 -26 0 -22 26 5 33 10 3 18 5 19 6 1 0 1 -8 0 -19z
m228 10 c8 -13 -5 -13 -25 0 -13 8 -13 10 2 10 9 0 20 -4 23 -10z m-3718 -6
c-3 -3 -12 -4 -19 -1 -8 3 -5 6 6 6 11 1 17 -2 13 -5z m2623 2 c0 -3 -4 -8
-10 -11 -5 -3 -10 -1 -10 4 0 6 5 11 10 11 6 0 10 -2 10 -4z m70 -11 c0 -8 -8
-15 -19 -15 -10 0 -24 -7 -31 -15 -18 -22 -32 -18 -18 5 7 11 21 20 30 20 10
0 18 5 18 10 0 6 5 10 10 10 6 0 10 -7 10 -15z m387 9 c-3 -3 -12 -4 -19 -1
-8 3 -5 6 6 6 11 1 17 -2 13 -5z m-4282 -14 c-3 -5 -16 -10 -28 -9 -21 0 -21
1 -2 9 28 12 37 12 30 0z m2010 0 c3 -5 1 -10 -4 -10 -6 0 -11 5 -11 10 0 6 2
10 4 10 3 0 8 -4 11 -10z m2480 0 c3 -5 1 -10 -4 -10 -6 0 -11 5 -11 10 0 6 2
10 4 10 3 0 8 -4 11 -10z m-4125 -10 c0 -5 -7 -10 -15 -10 -8 0 -15 5 -15 10
0 6 7 10 15 10 8 0 15 -4 15 -10z m1453 3 c-7 -2 -19 -2 -25 0 -7 3 -2 5 12 5
14 0 19 -2 13 -5z m374 1 c-3 -3 -12 -4 -19 -1 -8 3 -5 6 6 6 11 1 17 -2 13
-5z m173 -4 c0 -5 -7 -10 -15 -10 -8 0 -15 5 -15 10 0 6 7 10 15 10 8 0 15 -4
15 -10z m507 4 c-3 -3 -12 -4 -19 -1 -8 3 -5 6 6 6 11 1 17 -2 13 -5z m518 -1
c-11 -3 -25 -9 -32 -15 -7 -5 -13 -5 -17 1 -7 10 16 19 49 19 l20 0 -20 -5z
m222 1 c-3 -3 -12 -4 -19 -1 -8 3 -5 6 6 6 11 1 17 -2 13 -5z m66 -1 c-7 -2
-19 -2 -25 0 -7 3 -2 5 12 5 14 0 19 -2 13 -5z m384 1 c-3 -3 -12 -4 -19 -1
-8 3 -5 6 6 6 11 1 17 -2 13 -5z m53 -4 c0 -5 -2 -10 -4 -10 -3 0 -8 5 -11 10
-3 6 -1 10 4 10 6 0 11 -4 11 -10z m150 0 c0 -5 -4 -10 -10 -10 -5 0 -10 5
-10 10 0 6 5 10 10 10 6 0 10 -4 10 -10z m40 0 c0 -5 -7 -7 -15 -4 -8 4 -15 8
-15 10 0 2 7 4 15 4 8 0 15 -4 15 -10z m140 0 c0 -5 -7 -10 -15 -10 -8 0 -15
5 -15 10 0 6 7 10 15 10 8 0 15 -4 15 -10z m125 0 c3 -5 1 -10 -4 -10 -6 0
-11 5 -11 10 0 6 2 10 4 10 3 0 8 -4 11 -10z m35 0 c0 -5 -4 -10 -10 -10 -5 0
-10 5 -10 10 0 6 5 10 10 10 6 0 10 -4 10 -10z m240 0 c-20 -13 -40 -13 -40 0
0 6 12 10 28 10 21 0 24 -2 12 -10z m57 3 c-4 -3 -2 -12 4 -20 9 -10 7 -13 -9
-13 -15 0 -20 6 -19 20 1 11 8 20 16 20 8 0 11 -3 8 -7z m70 0 c-4 -3 -2 -12
4 -20 9 -10 7 -13 -9 -13 -11 0 -22 6 -25 14 -7 17 1 26 21 26 9 0 12 -3 9 -7z
m48 -3 c3 -6 -1 -7 -9 -4 -18 7 -21 14 -7 14 6 0 13 -4 16 -10z m125 0 c0 -5
-5 -10 -11 -10 -5 0 -7 5 -4 10 3 6 8 10 11 10 2 0 4 -4 4 -10z m-2150 -26 c0
-8 -4 -12 -10 -9 -5 3 -10 13 -10 21 0 8 5 12 10 9 6 -3 10 -13 10 -21z m-455
6 c3 -5 1 -10 -4 -10 -6 0 -11 5 -11 10 0 6 2 10 4 10 3 0 8 -4 11 -10z m75 0
c0 -5 -4 -10 -10 -10 -5 0 -10 5 -10 10 0 6 5 10 10 10 6 0 10 -4 10 -10z
m220 0 c0 -5 -4 -10 -10 -10 -5 0 -10 5 -10 10 0 6 5 10 10 10 6 0 10 -4 10
-10z m630 3 c0 -5 -12 -9 -27 -10 -19 -1 -22 1 -12 8 17 11 39 12 39 2z m70
-3 c0 -5 -2 -10 -4 -10 -3 0 -8 5 -11 10 -3 6 -1 10 4 10 6 0 11 -4 11 -10z
m992 0 c6 0 6 -6 -2 -15 -17 -21 -27 -19 -33 6 -4 15 -2 19 10 15 8 -3 19 -6
25 -6z m911 -6 c9 -4 17 -10 17 -15 0 -13 -33 -10 -52 5 -18 13 -13 31 6 21 6
-3 19 -8 29 -11z m-5553 -3 c0 -5 -7 -12 -16 -15 -14 -5 -15 -4 -4 9 14 17 20
19 20 6z m4965 0 c-3 -5 4 -13 16 -16 11 -4 18 -9 16 -12 -8 -7 -47 16 -47 27
0 6 5 10 11 10 5 0 8 -4 4 -9z m506 -11 c-13 -11 -31 -20 -40 -20 -10 0 -6 7
14 20 39 26 57 25 26 0z m219 -21 c45 -23 79 -43 76 -46 -3 -3 -17 2 -30 11
-14 9 -35 16 -47 16 -12 0 -27 7 -33 16 -14 18 -50 8 -42 -12 3 -8 -2 -18 -12
-23 -14 -8 -17 -4 -19 27 -1 22 1 31 6 23 6 -9 11 -10 15 -3 4 6 -2 15 -11 21
-16 9 -16 10 -2 11 9 0 54 -18 99 -41z m-3070 11 c0 -5 -4 -10 -10 -10 -5 0
-10 5 -10 10 0 6 5 10 10 10 6 0 10 -4 10 -10z m990 6 c0 -3 -4 -8 -10 -11 -5
-3 -10 -1 -10 4 0 6 5 11 10 11 6 0 10 -2 10 -4z m1095 -6 c3 -5 -1 -10 -10
-10 -9 0 -13 5 -10 10 3 6 8 10 10 10 2 0 7 -4 10 -10z m400 0 c3 -5 2 -10 -4
-10 -5 0 -13 5 -16 10 -3 6 -2 10 4 10 5 0 13 -4 16 -10z m-1855 -10 c0 -5 -4
-10 -10 -10 -5 0 -10 5 -10 10 0 6 5 10 10 10 6 0 10 -4 10 -10z m1700 0 c0
-5 -4 -10 -10 -10 -5 0 -10 5 -10 10 0 6 5 10 10 10 6 0 10 -4 10 -10z m-5055
-20 c-27 -12 -43 -12 -25 0 8 5 22 9 30 9 10 0 8 -3 -5 -9z m3325 6 c0 -3 -4
-8 -10 -11 -5 -3 -10 -1 -10 4 0 6 5 11 10 11 6 0 10 -2 10 -4z m1345 -6 c-3
-5 -11 -10 -16 -10 -6 0 -7 5 -4 10 3 6 11 10 16 10 6 0 7 -4 4 -10z m410 0
c3 -5 1 -10 -4 -10 -6 0 -11 5 -11 10 0 6 2 10 4 10 3 0 8 -4 11 -10z m62 4
c-3 -3 -12 -4 -19 -1 -8 3 -5 6 6 6 11 1 17 -2 13 -5z m-572 -14 c-3 -5 -11
-10 -16 -10 -6 0 -7 5 -4 10 3 6 11 10 16 10 6 0 7 -4 4 -10z m-805 -15 c-7
-9 -15 -13 -17 -11 -7 7 7 26 19 26 6 0 6 -6 -2 -15z m-3820 -10 c-7 -8 -17
-12 -22 -9 -6 4 -5 10 3 15 22 14 33 10 19 -6z m3000 5 c0 -5 -2 -10 -4 -10
-3 0 -8 5 -11 10 -3 6 -1 10 4 10 6 0 11 -4 11 -10z m650 -20 c0 -5 -7 -7 -15
-4 -8 4 -15 8 -15 10 0 2 7 4 15 4 8 0 15 -4 15 -10z m105 0 c3 -5 1 -10 -4
-10 -6 0 -11 5 -11 10 0 6 2 10 4 10 3 0 8 -4 11 -10z m1772 4 c-3 -3 -12 -4
-19 -1 -8 3 -5 6 6 6 11 1 17 -2 13 -5z m493 -34 c0 -5 -2 -10 -4 -10 -3 0 -8
5 -11 10 -3 6 -1 10 4 10 6 0 11 -4 11 -10z m70 -53 c0 -4 -11 0 -25 10 -13
10 -25 22 -25 26 0 4 11 0 25 -10 13 -10 25 -22 25 -26z m-4829 -1281 c510
-52 978 -190 1261 -372 126 -81 267 -232 327 -351 l21 -42 0 -1679 c0 -923 -3
-1681 -6 -1685 -4 -3 -23 15 -44 41 -176 219 -513 385 -1084 532 -300 77 -562
110 -946 118 -284 7 -296 8 -326 29 -69 50 -64 -84 -62 1710 l3 1618 23 33
c13 18 40 41 60 53 35 19 50 20 332 15 162 -3 360 -12 441 -20z m4179 1 c30
-16 51 -37 67 -67 l23 -43 -2 -1613 -3 -1613 -21 -28 c-11 -15 -36 -38 -54
-50 -32 -22 -42 -23 -246 -23 -245 0 -399 -11 -639 -45 -505 -73 -992 -242
-1271 -440 -74 -53 -178 -155 -202 -199 -16 -29 -17 56 -20 1669 l-3 1700 43
84 c103 204 352 386 667 485 287 91 591 153 881 180 229 22 236 22 501 24 229
2 237 1 279 -21z"/>
<path d="M3690 7304 c0 -3 6 -12 14 -20 17 -16 66 -19 66 -4 0 6 -11 10 -25
10 -14 0 -25 5 -25 10 0 6 -7 10 -15 10 -8 0 -15 -3 -15 -6z"/>
<path d="M3875 7300 c3 -5 10 -10 16 -10 5 0 9 5 9 10 0 6 -7 10 -16 10 -8 0
-12 -4 -9 -10z"/>
<path d="M4670 7305 c0 -5 5 -17 10 -25 5 -8 10 -10 10 -5 0 6 -5 17 -10 25
-5 8 -10 11 -10 5z"/>
<path d="M4785 7300 c3 -5 8 -10 11 -10 2 0 4 5 4 10 0 6 -5 10 -11 10 -5 0
-7 -4 -4 -10z"/>
<path d="M5080 7306 c0 -2 7 -7 16 -10 8 -3 12 -2 9 4 -6 10 -25 14 -25 6z"/>
<path d="M2630 7290 c0 -5 7 -10 16 -10 8 0 12 5 9 10 -3 6 -10 10 -16 10 -5
0 -9 -4 -9 -10z"/>
<path d="M2846 7285 c4 -8 8 -15 10 -15 2 0 4 7 4 15 0 8 -4 15 -10 15 -5 0
-7 -7 -4 -15z"/>
<path d="M4950 7280 c0 -5 5 -10 11 -10 5 0 7 5 4 10 -3 6 -8 10 -11 10 -2 0
-4 -4 -4 -10z"/>
<path d="M5200 7280 c20 -13 33 -13 25 0 -3 6 -14 10 -23 10 -15 0 -15 -2 -2
-10z"/>
<path d="M5670 7290 c0 -11 5 -20 10 -20 6 0 10 6 10 14 0 9 13 16 33 19 28 3
26 4 -10 5 -37 2 -43 -1 -43 -18z"/>
<path d="M5793 7303 c9 -2 17 -11 17 -19 0 -8 9 -14 20 -14 13 0 18 5 14 14
-4 11 5 16 38 19 24 2 11 4 -32 4 -41 0 -67 -1 -57 -4z"/>
<path d="M5885 7280 c-3 -5 -1 -10 4 -10 6 0 11 5 11 10 0 6 -2 10 -4 10 -3 0
-8 -4 -11 -10z"/>
<path d="M6040 7250 c0 -5 5 -10 10 -10 6 0 10 5 10 10 0 6 -4 10 -10 10 -5 0
-10 -4 -10 -10z"/>
<path d="M6223 7253 c9 -2 23 -2 30 0 6 3 -1 5 -18 5 -16 0 -22 -2 -12 -5z"/>
<path d="M5365 4784 c-350 -24 -507 -51 -810 -136 -292 -82 -315 -94 -315
-166 0 -24 9 -42 29 -63 39 -39 85 -38 210 2 139 44 305 86 456 114 158 29
548 67 660 64 119 -3 124 -2 156 30 48 49 35 126 -26 156 -39 18 -101 18 -360
-1z"/>
<path d="M5340 4114 c-364 -30 -522 -57 -855 -149 -163 -45 -204 -59 -222 -80
-54 -62 -7 -155 77 -155 23 0 97 16 165 35 219 62 406 102 580 124 152 20 420
41 531 41 97 0 115 3 137 20 53 42 41 132 -23 165 -35 18 -164 18 -390 -1z"/>
<path d="M5310 3449 c-190 -14 -505 -72 -829 -155 -183 -46 -215 -60 -233 -99
-14 -31 -3 -88 21 -109 37 -34 88 -31 277 17 420 107 659 145 982 154 230 7
239 10 249 79 6 50 -7 78 -50 104 -28 17 -49 20 -167 19 -74 -1 -187 -6 -250
-10z"/>
</g>
</svg>
